<svg width="30" height="30" viewBox="0 0 30 30" fill="none" xmlns="http://www.w3.org/2000/svg">
<path d="M8.29516 10.2437C5.52772 10.8703 4.14401 11.183 3.81439 12.2416C3.4859 13.2991 4.42862 14.4027 6.3152 16.6088L6.80344 17.1791C7.33893 17.8058 7.6078 18.1196 7.72817 18.5066C7.84854 18.8947 7.80804 19.3132 7.72705 20.1491L7.6528 20.9107C7.36818 23.8547 7.22531 25.3262 8.08704 25.9798C8.94877 26.6334 10.2447 26.0372 12.8344 24.8447L13.506 24.5365C14.2418 24.1967 14.6096 24.028 15 24.028C15.3904 24.028 15.7582 24.1967 16.4951 24.5365L17.1644 24.8447C19.7553 26.0372 21.0512 26.6334 21.9118 25.9809C22.7747 25.3262 22.6318 23.8547 22.3472 20.9107M23.6848 16.6088C25.5714 14.4038 26.5141 13.3002 26.1856 12.2416C25.8571 11.183 24.4723 10.8692 21.7048 10.2437L20.9894 10.0817C20.203 9.90394 19.8104 9.81507 19.4943 9.57545C19.1782 9.33583 18.9768 8.97246 18.5718 8.24573L18.2028 7.58425C16.7775 5.02831 16.0653 3.75034 15 3.75034C13.9346 3.75034 13.2225 5.02831 11.7972 7.58425" stroke="#DFE2EA" stroke-width="1.5" stroke-linecap="round"/>
</svg>
