<svg width="60" height="60" viewBox="0 0 60 60" fill="none" xmlns="http://www.w3.org/2000/svg">
<path d="M7.5 7.5C5.42578 7.5 3.75 9.17578 3.75 11.25V38.6016L11.6836 30.668C13.5117 28.8398 16.4766 28.8398 18.3164 30.668L26.25 38.6016L41.6836 23.168C43.5117 21.3398 46.4766 21.3398 48.3164 23.168L56.25 31.1016V11.25C56.25 9.17578 54.5742 7.5 52.5 7.5H7.5ZM3.75 43.8984V48.75C3.75 50.8242 5.42578 52.5 7.5 52.5H12.3516L23.6016 41.25L15.668 33.3164C15.3047 32.9531 14.707 32.9531 14.3438 33.3164L3.75 43.8984ZM45.668 25.8164C45.3047 25.4531 44.707 25.4531 44.3437 25.8164L17.6484 52.5H52.5C54.5742 52.5 56.25 50.8242 56.25 48.75V36.3984L45.668 25.8164ZM0 11.25C0 7.11328 3.36328 3.75 7.5 3.75H52.5C56.6367 3.75 60 7.11328 60 11.25V48.75C60 52.8867 56.6367 56.25 52.5 56.25H7.5C3.36328 56.25 0 52.8867 0 48.75V11.25ZM18.75 16.875C18.75 16.3777 18.5525 15.9008 18.2008 15.5492C17.8492 15.1975 17.3723 15 16.875 15C16.3777 15 15.9008 15.1975 15.5492 15.5492C15.1975 15.9008 15 16.3777 15 16.875C15 17.3723 15.1975 17.8492 15.5492 18.2008C15.9008 18.5525 16.3777 18.75 16.875 18.75C17.3723 18.75 17.8492 18.5525 18.2008 18.2008C18.5525 17.8492 18.75 17.3723 18.75 16.875ZM11.25 16.875C11.25 15.3832 11.8426 13.9524 12.8975 12.8975C13.9524 11.8426 15.3832 11.25 16.875 11.25C18.3668 11.25 19.7976 11.8426 20.8525 12.8975C21.9074 13.9524 22.5 15.3832 22.5 16.875C22.5 18.3668 21.9074 19.7976 20.8525 20.8525C19.7976 21.9074 18.3668 22.5 16.875 22.5C15.3832 22.5 13.9524 21.9074 12.8975 20.8525C11.8426 19.7976 11.25 18.3668 11.25 16.875Z" fill="#9DA5B6"/>
</svg>
