<svg width="40" height="40" viewBox="0 0 40 40" fill="none" xmlns="http://www.w3.org/2000/svg">
<path d="M9.99984 33.3333C9.08317 33.3333 8.29873 33.0072 7.6465 32.355C6.99428 31.7028 6.66762 30.9178 6.6665 30V26.6667C6.6665 26.1944 6.8265 25.7989 7.1465 25.48C7.4665 25.1611 7.86206 25.0011 8.33317 25C8.80428 24.9989 9.20039 25.1589 9.5215 25.48C9.84261 25.8011 10.0021 26.1967 9.99984 26.6667V30H29.9998V26.6667C29.9998 26.1944 30.1598 25.7989 30.4798 25.48C30.7998 25.1611 31.1954 25.0011 31.6665 25C32.1376 24.9989 32.5337 25.1589 32.8548 25.48C33.1759 25.8011 33.3354 26.1967 33.3332 26.6667V30C33.3332 30.9167 33.0071 31.7017 32.3548 32.355C31.7026 33.0083 30.9176 33.3344 29.9998 33.3333H9.99984ZM18.3332 13.0833L15.2082 16.2083C14.8748 16.5417 14.4793 16.7017 14.0215 16.6883C13.5637 16.675 13.1676 16.5011 12.8332 16.1667C12.5276 15.8333 12.3676 15.4444 12.3532 15C12.3387 14.5556 12.4987 14.1667 12.8332 13.8333L18.8332 7.83334C18.9998 7.66667 19.1804 7.54889 19.3748 7.48C19.5693 7.41111 19.7776 7.37611 19.9998 7.375C20.2221 7.37389 20.4304 7.40889 20.6248 7.48C20.8193 7.55111 20.9998 7.66889 21.1665 7.83334L27.1665 13.8333C27.4998 14.1667 27.6598 14.5556 27.6465 15C27.6332 15.4444 27.4732 15.8333 27.1665 16.1667C26.8332 16.5 26.4376 16.6739 25.9798 16.6883C25.5221 16.7028 25.1259 16.5428 24.7915 16.2083L21.6665 13.0833V25C21.6665 25.4722 21.5065 25.8683 21.1865 26.1883C20.8665 26.5083 20.4709 26.6678 19.9998 26.6667C19.5287 26.6656 19.1332 26.5056 18.8132 26.1867C18.4932 25.8678 18.3332 25.4722 18.3332 25V13.0833Z" fill="#9DA5B6"/>
</svg>
