<svg width="175" height="19" viewBox="0 0 175 19" fill="none" xmlns="http://www.w3.org/2000/svg">
<path d="M8.976 13.416L13.152 1.896C13.344 1.304 13.688 0.888 14.184 0.647999C14.68 0.407999 15.208 0.359999 15.768 0.503999C16.328 0.663999 16.704 0.983999 16.896 1.464C17.104 1.928 17.104 2.432 16.896 2.976L11.448 17.064C11.24 17.56 10.92 17.944 10.488 18.216C10.072 18.488 9.56 18.624 8.952 18.624C8.344 18.624 7.824 18.488 7.392 18.216C6.976 17.944 6.672 17.56 6.48 17.064L1.008 2.976C0.8 2.432 0.8 1.928 1.008 1.464C1.216 0.983999 1.6 0.663999 2.16 0.503999C2.72 0.359999 3.24 0.407999 3.72 0.647999C4.216 0.888 4.56 1.304 4.752 1.896L8.928 13.416H8.976ZM21.6982 18.48C20.1302 18.48 19.3462 17.688 19.3462 16.104V2.568C19.3462 1.96 19.5222 1.472 19.8742 1.104C20.2422 0.735999 20.7302 0.551999 21.3382 0.551999C21.9462 0.551999 22.4342 0.735999 22.8023 1.104C23.1863 1.472 23.3783 1.96 23.3783 2.568V14.832H29.5943C30.1863 14.832 30.6823 15 31.0822 15.336C31.4823 15.656 31.6823 16.096 31.6823 16.656C31.6823 17.216 31.4823 17.664 31.0822 18C30.6823 18.32 30.1863 18.48 29.5943 18.48H21.6982ZM33.7256 2.568C33.7256 1.96 33.9096 1.472 34.2776 1.104C34.6456 0.735999 35.1336 0.551999 35.7416 0.551999C36.3496 0.551999 36.8376 0.735999 37.2056 1.104C37.5896 1.472 37.7816 1.96 37.7816 2.568V16.608C37.7816 17.216 37.5896 17.704 37.2056 18.072C36.8376 18.44 36.3496 18.624 35.7416 18.624C35.1336 18.624 34.6456 18.44 34.2776 18.072C33.9096 17.704 33.7256 17.216 33.7256 16.608V2.568ZM48.3088 13.416L52.4848 1.896C52.6768 1.304 53.0208 0.888 53.5168 0.647999C54.0128 0.407999 54.5408 0.359999 55.1008 0.503999C55.6608 0.663999 56.0368 0.983999 56.2288 1.464C56.4368 1.928 56.4368 2.432 56.2288 2.976L50.7808 17.064C50.5728 17.56 50.2528 17.944 49.8208 18.216C49.4048 18.488 48.8928 18.624 48.2848 18.624C47.6768 18.624 47.1568 18.488 46.7248 18.216C46.3088 17.944 46.0048 17.56 45.8128 17.064L40.3408 2.976C40.1328 2.432 40.1328 1.928 40.3408 1.464C40.5488 0.983999 40.9328 0.663999 41.4928 0.503999C42.0528 0.359999 42.5728 0.407999 43.0528 0.647999C43.5488 0.888 43.8928 1.304 44.0848 1.896L48.2608 13.416H48.3088ZM61.0311 18.48C59.4631 18.48 58.6791 17.688 58.6791 16.104V3.072C58.6791 1.488 59.4631 0.696 61.0311 0.696H69.4311C70.0391 0.696 70.5271 0.816 70.8951 1.056C71.2791 1.28 71.4711 1.696 71.4711 2.304C71.4711 2.912 71.2791 3.336 70.8951 3.576C70.5271 3.8 70.0391 3.912 69.4311 3.912H62.7351V7.752H68.9991C69.5591 7.752 70.0151 7.88 70.3671 8.136C70.7351 8.392 70.9191 8.8 70.9191 9.36C70.9191 9.92 70.7351 10.328 70.3671 10.584C70.0151 10.84 69.5591 10.968 68.9991 10.968H62.7351V15.264H69.7191C70.3271 15.264 70.8151 15.376 71.1831 15.6C71.5671 15.824 71.7591 16.24 71.7591 16.848C71.7591 17.456 71.5671 17.88 71.1831 18.12C70.8151 18.36 70.3271 18.48 69.7191 18.48H61.0311Z" fill="#DFE2EA"/>
<path d="M92.8123 2.448C93.2763 2.912 93.5563 3.416 93.6523 3.96C93.7483 4.488 93.5803 4.952 93.1483 5.352C92.7323 5.736 92.2523 5.872 91.7083 5.76C91.1803 5.632 90.6763 5.36 90.1963 4.944C89.6843 4.512 89.1483 4.176 88.5883 3.936C88.0283 3.696 87.3483 3.576 86.5483 3.576C86.1963 3.576 85.8603 3.608 85.5403 3.672C85.2203 3.72 84.9403 3.816 84.7003 3.96C84.4603 4.088 84.2683 4.272 84.1243 4.512C83.9803 4.736 83.9083 5.016 83.9083 5.352C83.9083 5.688 83.9723 5.976 84.1003 6.216C84.2443 6.44 84.4283 6.64 84.6523 6.816C84.8923 6.976 85.1563 7.112 85.4443 7.224C85.7483 7.336 86.0683 7.44 86.4043 7.536L89.7403 8.448C90.4923 8.656 91.1563 8.904 91.7323 9.192C92.3083 9.48 92.7883 9.832 93.1723 10.248C93.5723 10.648 93.8683 11.128 94.0603 11.688C94.2683 12.232 94.3723 12.872 94.3723 13.608C94.3723 14.36 94.2043 15.056 93.8683 15.696C93.5323 16.32 93.0523 16.872 92.4283 17.352C91.8043 17.816 91.0443 18.176 90.1483 18.432C89.2683 18.704 88.2763 18.84 87.1723 18.84C86.4363 18.84 85.7243 18.776 85.0363 18.648C84.3483 18.536 83.7003 18.36 83.0923 18.12C82.4843 17.88 81.9243 17.592 81.4123 17.256C80.9003 16.904 80.4683 16.496 80.1163 16.032C79.7163 15.536 79.4843 15.024 79.4203 14.496C79.3723 13.968 79.5963 13.52 80.0923 13.152C80.6043 12.784 81.1083 12.672 81.6043 12.816C82.1163 12.944 82.6043 13.264 83.0683 13.776C83.6283 14.384 84.2843 14.84 85.0363 15.144C85.8043 15.448 86.5963 15.6 87.4123 15.6C87.7963 15.6 88.1643 15.56 88.5163 15.48C88.8843 15.384 89.2043 15.256 89.4763 15.096C89.7643 14.92 89.9883 14.712 90.1483 14.472C90.3243 14.216 90.4123 13.928 90.4123 13.608C90.4123 13.064 90.2763 12.648 90.0043 12.36C89.7323 12.056 89.3003 11.816 88.7083 11.64L84.7483 10.56C84.0923 10.384 83.4763 10.152 82.9003 9.864C82.3243 9.56 81.8203 9.2 81.3883 8.784C80.9723 8.368 80.6443 7.888 80.4043 7.344C80.1643 6.784 80.0443 6.152 80.0443 5.448C80.0443 4.568 80.2203 3.808 80.5723 3.168C80.9243 2.528 81.3963 2 81.9883 1.584C82.5963 1.152 83.3003 0.839999 84.1003 0.647999C84.9003 0.439999 85.7403 0.335999 86.6203 0.335999C87.9963 0.335999 89.2043 0.519999 90.2443 0.887999C91.2843 1.24 92.1403 1.76 92.8123 2.448ZM101.143 4.272H97.2793C96.6873 4.272 96.1913 4.128 95.7913 3.84C95.4073 3.536 95.2153 3.08 95.2153 2.472C95.2153 1.88 95.4073 1.44 95.7913 1.152C96.1913 0.848 96.6873 0.696 97.2793 0.696H108.991C109.567 0.696 110.055 0.848 110.455 1.152C110.855 1.44 111.055 1.88 111.055 2.472C111.055 3.08 110.855 3.536 110.455 3.84C110.055 4.128 109.567 4.272 108.991 4.272H105.103V16.608C105.103 17.216 104.927 17.704 104.575 18.072C104.223 18.44 103.743 18.624 103.135 18.624C102.527 18.624 102.039 18.44 101.671 18.072C101.319 17.704 101.143 17.216 101.143 16.608V4.272ZM120.793 18.84C119.737 18.84 118.745 18.704 117.817 18.432C116.905 18.16 116.105 17.752 115.417 17.208C114.729 16.664 114.185 15.992 113.785 15.192C113.401 14.392 113.209 13.464 113.209 12.408V2.592C113.209 1.984 113.393 1.496 113.761 1.128C114.129 0.743999 114.617 0.551999 115.225 0.551999C115.833 0.551999 116.321 0.743999 116.689 1.128C117.057 1.496 117.241 1.984 117.241 2.592V12.12C117.241 12.632 117.329 13.088 117.505 13.488C117.681 13.888 117.929 14.232 118.249 14.52C118.569 14.808 118.945 15.032 119.377 15.192C119.809 15.336 120.281 15.408 120.793 15.408C121.289 15.408 121.753 15.336 122.185 15.192C122.633 15.032 123.009 14.808 123.313 14.52C123.633 14.232 123.881 13.888 124.057 13.488C124.249 13.088 124.345 12.632 124.345 12.12V2.592C124.345 1.984 124.529 1.496 124.897 1.128C125.265 0.743999 125.753 0.551999 126.361 0.551999C126.969 0.551999 127.457 0.743999 127.825 1.128C128.193 1.496 128.377 1.984 128.377 2.592V12.408C128.377 13.464 128.177 14.392 127.777 15.192C127.393 15.992 126.857 16.664 126.169 17.208C125.481 17.736 124.673 18.136 123.745 18.408C122.833 18.696 121.849 18.84 120.793 18.84ZM135.883 15.12H139.147C139.899 15.12 140.547 14.976 141.091 14.688C141.635 14.4 142.075 14.008 142.411 13.512C142.763 13 143.019 12.408 143.179 11.736C143.355 11.064 143.443 10.352 143.443 9.6C143.443 8.848 143.355 8.136 143.179 7.464C143.019 6.792 142.763 6.208 142.411 5.712C142.075 5.2 141.635 4.8 141.091 4.512C140.547 4.224 139.899 4.08 139.147 4.08H135.883V15.12ZM131.851 3.072C131.851 1.488 132.635 0.696 134.203 0.696H139.027C140.131 0.696 141.187 0.831999 142.195 1.104C143.219 1.376 144.123 1.856 144.907 2.544C145.691 3.216 146.315 4.128 146.779 5.28C147.243 6.416 147.475 7.856 147.475 9.6C147.475 11.008 147.283 12.264 146.899 13.368C146.515 14.456 145.955 15.384 145.219 16.152C144.499 16.904 143.611 17.48 142.555 17.88C141.499 18.28 140.299 18.48 138.955 18.48H134.203C132.635 18.48 131.851 17.688 131.851 16.104V3.072ZM150.238 2.568C150.238 1.96 150.422 1.472 150.79 1.104C151.158 0.735999 151.646 0.551999 152.254 0.551999C152.862 0.551999 153.35 0.735999 153.718 1.104C154.102 1.472 154.294 1.96 154.294 2.568V16.608C154.294 17.216 154.102 17.704 153.718 18.072C153.35 18.44 152.862 18.624 152.254 18.624C151.646 18.624 151.158 18.44 150.79 18.072C150.422 17.704 150.238 17.216 150.238 16.608V2.568ZM161.029 9.6C161.029 10.432 161.141 11.208 161.365 11.928C161.589 12.632 161.909 13.248 162.325 13.776C162.757 14.288 163.277 14.696 163.885 15C164.509 15.288 165.221 15.432 166.021 15.432C166.821 15.432 167.525 15.288 168.133 15C168.757 14.696 169.277 14.288 169.693 13.776C170.125 13.248 170.453 12.632 170.677 11.928C170.901 11.208 171.013 10.432 171.013 9.6C171.013 8.768 170.901 8 170.677 7.296C170.453 6.576 170.125 5.952 169.693 5.424C169.277 4.896 168.757 4.488 168.133 4.2C167.525 3.896 166.821 3.744 166.021 3.744C165.221 3.744 164.509 3.896 163.885 4.2C163.277 4.488 162.757 4.896 162.325 5.424C161.909 5.952 161.589 6.576 161.365 7.296C161.141 8 161.029 8.768 161.029 9.6ZM157.045 9.6C157.045 8.272 157.245 7.04 157.645 5.904C158.045 4.768 158.629 3.792 159.397 2.976C160.165 2.144 161.101 1.496 162.205 1.032C163.325 0.567999 164.597 0.335999 166.021 0.335999C167.445 0.335999 168.709 0.567999 169.813 1.032C170.933 1.496 171.877 2.144 172.645 2.976C173.413 3.792 173.997 4.768 174.397 5.904C174.797 7.04 174.997 8.272 174.997 9.6C174.997 10.928 174.797 12.16 174.397 13.296C173.997 14.416 173.413 15.392 172.645 16.224C171.877 17.04 170.933 17.68 169.813 18.144C168.709 18.608 167.445 18.84 166.021 18.84C164.597 18.84 163.325 18.608 162.205 18.144C161.101 17.68 160.165 17.04 159.397 16.224C158.629 15.392 158.045 14.416 157.645 13.296C157.245 12.16 157.045 10.928 157.045 9.6Z" fill="#00FA9A"/>
</svg>
