<svg width="21" height="21" viewBox="0 0 21 21" fill="none" xmlns="http://www.w3.org/2000/svg">
<path d="M11.1795 7.82353H5.4359C5.05507 7.82353 4.68985 7.97227 4.42056 8.23703C4.15128 8.50178 4 8.86087 4 9.23529V12.0588C4 12.4332 4.15128 12.7923 4.42056 13.0571C4.68985 13.3218 5.05507 13.4706 5.4359 13.4706H6.15385V16.2941C6.15385 16.4813 6.22949 16.6609 6.36413 16.7933C6.49877 16.9256 6.68138 17 6.87179 17H8.30769C8.4981 17 8.68072 16.9256 8.81536 16.7933C8.95 16.6609 9.02564 16.4813 9.02564 16.2941V13.4706H11.1795L14.7692 16.2941V5L11.1795 7.82353ZM18 10.6471C18 11.8541 17.3108 12.9482 16.2051 13.4706V7.82353C17.3036 8.35294 18 9.44706 18 10.6471Z" fill="#C9CEDC"/>
</svg>
