<svg width="21" height="21" viewBox="0 0 21 21" fill="none" xmlns="http://www.w3.org/2000/svg">
<path fill-rule="evenodd" clip-rule="evenodd" d="M18.6875 4.5H4.9375V14.75H18.6875V4.5ZM4.9375 3.5C4.38522 3.5 3.9375 3.94772 3.9375 4.5V14.75C3.9375 15.3023 4.38522 15.75 4.9375 15.75H18.6875C19.2398 15.75 19.6875 15.3023 19.6875 14.75V4.5C19.6875 3.94772 19.2398 3.5 18.6875 3.5H4.9375ZM13.6875 8.75449C14.0208 8.94694 14.0208 9.42806 13.6875 9.62051L10.5937 11.4067C10.2604 11.5991 9.84375 11.3586 9.84375 10.9737V7.40132C9.84375 7.01642 10.2604 6.77586 10.5938 6.96831L13.6875 8.75449ZM2.6875 7C2.6875 6.72386 2.46364 6.5 2.1875 6.5C1.91136 6.5 1.6875 6.72386 1.6875 7V16.5C1.6875 17.3284 2.35907 18 3.1875 18H15.3125C15.5886 18 15.8125 17.7761 15.8125 17.5C15.8125 17.2239 15.5886 17 15.3125 17H3.1875C2.91136 17 2.6875 16.7761 2.6875 16.5V7Z" fill="#C9CEDC"/>
</svg>
